<mxfile host="app.diagrams.net" agent="Mozilla/5.0 (Windows NT 10.0; Win64; x64) AppleWebKit/537.36 (KHTML, like Gecko) Chrome/135.0.0.0 Safari/537.36" version="26.2.15">
  <diagram name="Page-1" id="e7e014a7-5840-1c2e-5031-d8a46d1fe8dd">
    <mxGraphModel dx="1426" dy="711" grid="1" gridSize="10" guides="1" tooltips="1" connect="1" arrows="1" fold="1" page="1" pageScale="1" pageWidth="1169" pageHeight="826" background="none" math="0" shadow="0">
      <root>
        <mxCell id="0" />
        <mxCell id="1" parent="0" />
        <mxCell id="2" value="Customer" style="swimlane;whiteSpace=wrap" parent="1" vertex="1">
          <mxGeometry x="164.5" y="128" width="280" height="652" as="geometry" />
        </mxCell>
        <mxCell id="BLsOFaM8oaL6rfoPC9Mi-46" value="" style="edgeStyle=orthogonalEdgeStyle;rounded=0;orthogonalLoop=1;jettySize=auto;html=1;" parent="2" source="5" target="7" edge="1">
          <mxGeometry relative="1" as="geometry" />
        </mxCell>
        <mxCell id="5" value="" style="ellipse;shape=startState;fillColor=#000000;strokeColor=#ff0000;" parent="2" vertex="1">
          <mxGeometry x="100" y="40" width="30" height="30" as="geometry" />
        </mxCell>
        <mxCell id="7" value="Nhập thông tin&#xa;người dùng" style="" parent="2" vertex="1">
          <mxGeometry x="60" y="110" width="110" height="50" as="geometry" />
        </mxCell>
        <mxCell id="BLsOFaM8oaL6rfoPC9Mi-57" style="edgeStyle=orthogonalEdgeStyle;rounded=0;orthogonalLoop=1;jettySize=auto;html=1;entryX=0;entryY=0.5;entryDx=0;entryDy=0;" parent="2" source="10" target="7" edge="1">
          <mxGeometry relative="1" as="geometry" />
        </mxCell>
        <mxCell id="10" value="Thông báo trùng&#xa;tài khoản" style="" parent="2" vertex="1">
          <mxGeometry x="60" y="381" width="110" height="50" as="geometry" />
        </mxCell>
        <mxCell id="38" value="" style="ellipse;shape=endState;fillColor=#000000;strokeColor=#ff0000" parent="2" vertex="1">
          <mxGeometry x="100" y="562" width="30" height="30" as="geometry" />
        </mxCell>
        <mxCell id="BLsOFaM8oaL6rfoPC9Mi-56" value="" style="edgeStyle=orthogonalEdgeStyle;rounded=0;orthogonalLoop=1;jettySize=auto;html=1;" parent="2" source="30" target="7" edge="1">
          <mxGeometry relative="1" as="geometry" />
        </mxCell>
        <mxCell id="30" value="Thông báo nhập &#xa;lại thông tin" style="" parent="2" vertex="1">
          <mxGeometry x="60" y="198.5" width="110" height="50" as="geometry" />
        </mxCell>
        <mxCell id="BLsOFaM8oaL6rfoPC9Mi-61" value="" style="edgeStyle=orthogonalEdgeStyle;rounded=0;orthogonalLoop=1;jettySize=auto;html=1;" parent="2" source="8" target="38" edge="1">
          <mxGeometry relative="1" as="geometry" />
        </mxCell>
        <mxCell id="8" value="Thông báo tạo &#xa;tài khoản thành công" style="" parent="2" vertex="1">
          <mxGeometry x="60" y="482" width="110" height="50" as="geometry" />
        </mxCell>
        <mxCell id="3" value="Hệ thống" style="swimlane;whiteSpace=wrap" parent="1" vertex="1">
          <mxGeometry x="444.5" y="128" width="325.5" height="652" as="geometry" />
        </mxCell>
        <mxCell id="BLsOFaM8oaL6rfoPC9Mi-44" style="edgeStyle=orthogonalEdgeStyle;rounded=0;orthogonalLoop=1;jettySize=auto;html=1;entryX=0.5;entryY=0;entryDx=0;entryDy=0;" parent="3" source="15" target="BLsOFaM8oaL6rfoPC9Mi-41" edge="1">
          <mxGeometry relative="1" as="geometry" />
        </mxCell>
        <mxCell id="15" value="Kiểm tra độ&#xa;hợp lệ thông tin" style="" parent="3" vertex="1">
          <mxGeometry x="65.5" y="110" width="110" height="50" as="geometry" />
        </mxCell>
        <mxCell id="BLsOFaM8oaL6rfoPC9Mi-52" value="" style="edgeStyle=orthogonalEdgeStyle;rounded=0;orthogonalLoop=1;jettySize=auto;html=1;" parent="3" source="31" target="BLsOFaM8oaL6rfoPC9Mi-51" edge="1">
          <mxGeometry relative="1" as="geometry" />
        </mxCell>
        <mxCell id="31" value="Kiểm tra xem&#xa;có bị trùng lặp không" style="shape=note;whiteSpace=wrap;size=0;" parent="3" vertex="1">
          <mxGeometry x="70.5" y="285" width="100" height="50" as="geometry" />
        </mxCell>
        <mxCell id="BLsOFaM8oaL6rfoPC9Mi-47" value="" style="edgeStyle=orthogonalEdgeStyle;rounded=0;orthogonalLoop=1;jettySize=auto;html=1;" parent="3" source="BLsOFaM8oaL6rfoPC9Mi-41" target="31" edge="1">
          <mxGeometry relative="1" as="geometry" />
        </mxCell>
        <mxCell id="BLsOFaM8oaL6rfoPC9Mi-41" value="" style="rhombus;whiteSpace=wrap;html=1;" parent="3" vertex="1">
          <mxGeometry x="80.5" y="192" width="80" height="63" as="geometry" />
        </mxCell>
        <mxCell id="BLsOFaM8oaL6rfoPC9Mi-49" value="Không hợp lệ" style="text;html=1;align=center;verticalAlign=middle;whiteSpace=wrap;rounded=0;" parent="3" vertex="1">
          <mxGeometry x="20.5" y="192" width="60" height="30" as="geometry" />
        </mxCell>
        <mxCell id="BLsOFaM8oaL6rfoPC9Mi-50" value="Hợp lệ" style="text;html=1;align=center;verticalAlign=middle;whiteSpace=wrap;rounded=0;" parent="3" vertex="1">
          <mxGeometry x="125.5" y="252" width="60" height="30" as="geometry" />
        </mxCell>
        <mxCell id="BLsOFaM8oaL6rfoPC9Mi-58" value="" style="edgeStyle=orthogonalEdgeStyle;rounded=0;orthogonalLoop=1;jettySize=auto;html=1;" parent="3" source="BLsOFaM8oaL6rfoPC9Mi-51" target="16" edge="1">
          <mxGeometry relative="1" as="geometry" />
        </mxCell>
        <mxCell id="BLsOFaM8oaL6rfoPC9Mi-51" value="" style="rhombus;whiteSpace=wrap;html=1;" parent="3" vertex="1">
          <mxGeometry x="81" y="372" width="79.5" height="68" as="geometry" />
        </mxCell>
        <mxCell id="16" value="Lưu thông tin người&#xa;dùng mới vào&#xa;database" style="" parent="3" vertex="1">
          <mxGeometry x="65.5" y="482" width="110" height="50" as="geometry" />
        </mxCell>
        <mxCell id="BLsOFaM8oaL6rfoPC9Mi-43" style="edgeStyle=orthogonalEdgeStyle;rounded=0;orthogonalLoop=1;jettySize=auto;html=1;" parent="1" source="7" target="15" edge="1">
          <mxGeometry relative="1" as="geometry" />
        </mxCell>
        <mxCell id="BLsOFaM8oaL6rfoPC9Mi-53" style="edgeStyle=orthogonalEdgeStyle;rounded=0;orthogonalLoop=1;jettySize=auto;html=1;entryX=1;entryY=0.5;entryDx=0;entryDy=0;" parent="1" source="BLsOFaM8oaL6rfoPC9Mi-51" target="10" edge="1">
          <mxGeometry relative="1" as="geometry" />
        </mxCell>
        <mxCell id="BLsOFaM8oaL6rfoPC9Mi-55" style="edgeStyle=orthogonalEdgeStyle;rounded=0;orthogonalLoop=1;jettySize=auto;html=1;entryX=1;entryY=0.5;entryDx=0;entryDy=0;" parent="1" source="BLsOFaM8oaL6rfoPC9Mi-41" target="30" edge="1">
          <mxGeometry relative="1" as="geometry" />
        </mxCell>
        <mxCell id="BLsOFaM8oaL6rfoPC9Mi-60" style="edgeStyle=orthogonalEdgeStyle;rounded=0;orthogonalLoop=1;jettySize=auto;html=1;entryX=1;entryY=0.5;entryDx=0;entryDy=0;" parent="1" source="16" target="8" edge="1">
          <mxGeometry relative="1" as="geometry" />
        </mxCell>
        <mxCell id="1f9tWmbzwuvF8i3gZWqt-39" value="Chức năng đăng ký" style="rounded=0;whiteSpace=wrap;html=1;" vertex="1" parent="1">
          <mxGeometry x="165" y="90" width="605" height="38" as="geometry" />
        </mxCell>
      </root>
    </mxGraphModel>
  </diagram>
</mxfile>
